<mxfile host="app.diagrams.net" agent="Mozilla/5.0 (Windows NT 10.0; Win64; x64; rv:139.0) Gecko/20100101 Firefox/139.0" version="27.1.4">
  <diagram name="Seite-1" id="C0ghvE-4qZL3EzDajxP_">
    <mxGraphModel dx="2251" dy="1259" grid="1" gridSize="10" guides="1" tooltips="1" connect="1" arrows="1" fold="1" page="1" pageScale="1" pageWidth="827" pageHeight="1169" math="0" shadow="0">
      <root>
        <mxCell id="0" />
        <mxCell id="1" parent="0" />
        <mxCell id="duxP4CULR9FMRPUdZlci-1" value="" style="rounded=1;whiteSpace=wrap;html=1;arcSize=4;fillColor=#f5f5f5;fontColor=#333333;strokeColor=#666666;" parent="1" vertex="1">
          <mxGeometry x="-100" y="370" width="820" height="350" as="geometry" />
        </mxCell>
        <mxCell id="duxP4CULR9FMRPUdZlci-2" value="The Internet" style="image;aspect=fixed;perimeter=ellipsePerimeter;html=1;align=center;shadow=0;dashed=0;spacingTop=3;image=img/lib/active_directory/internet_cloud.svg;fontFamily=Lucida Console;" parent="1" vertex="1">
          <mxGeometry x="222.7" y="110" width="174.6" height="110" as="geometry" />
        </mxCell>
        <mxCell id="duxP4CULR9FMRPUdZlci-22" style="rounded=0;orthogonalLoop=1;jettySize=auto;html=1;exitX=1;exitY=0.5;exitDx=0;exitDy=0;entryX=0;entryY=0.5;entryDx=0;entryDy=0;endArrow=none;startFill=0;" parent="1" source="duxP4CULR9FMRPUdZlci-3" target="duxP4CULR9FMRPUdZlci-5" edge="1">
          <mxGeometry relative="1" as="geometry" />
        </mxCell>
        <mxCell id="duxP4CULR9FMRPUdZlci-3" value="&lt;span style=&quot;background-color: light-dark(#ffffff, var(--ge-dark-color, #121212));&quot;&gt;vHub region-eu-1 &lt;/span&gt;" style="rounded=1;whiteSpace=wrap;html=1;fontFamily=Lucida Console;fillColor=#cce5ff;strokeColor=#36393d;" parent="1" vertex="1">
          <mxGeometry x="146" y="505" width="130" height="60" as="geometry" />
        </mxCell>
        <mxCell id="duxP4CULR9FMRPUdZlci-33" style="rounded=0;orthogonalLoop=1;jettySize=auto;html=1;exitX=0.5;exitY=0;exitDx=0;exitDy=0;entryX=0.5;entryY=1;entryDx=0;entryDy=0;shape=link;strokeColor=#004C99;" parent="1" edge="1">
          <mxGeometry relative="1" as="geometry">
            <mxPoint x="33" y="825" as="sourcePoint" />
            <mxPoint x="221" y="565" as="targetPoint" />
          </mxGeometry>
        </mxCell>
        <mxCell id="duxP4CULR9FMRPUdZlci-4" value="" style="rounded=1;whiteSpace=wrap;html=1;arcSize=4;" parent="1" vertex="1">
          <mxGeometry x="-87" y="825" width="220" height="180" as="geometry" />
        </mxCell>
        <mxCell id="duxP4CULR9FMRPUdZlci-5" value="&lt;font style=&quot;background-color: light-dark(#ffffff, var(--ge-dark-color, #121212));&quot; face=&quot;Lucida Console&quot;&gt;vHub region-eu-2&lt;/font&gt;" style="rounded=1;whiteSpace=wrap;html=1;fillColor=#cce5ff;strokeColor=#36393d;" parent="1" vertex="1">
          <mxGeometry x="345" y="507" width="130" height="60" as="geometry" />
        </mxCell>
        <mxCell id="duxP4CULR9FMRPUdZlci-20" style="rounded=0;orthogonalLoop=1;jettySize=auto;html=1;exitX=1;exitY=1;exitDx=0;exitDy=0;entryX=0;entryY=0.25;entryDx=0;entryDy=0;endArrow=none;startFill=0;strokeWidth=3;fillColor=#dae8fc;strokeColor=#6c8ebf;" parent="1" source="duxP4CULR9FMRPUdZlci-7" target="duxP4CULR9FMRPUdZlci-3" edge="1">
          <mxGeometry relative="1" as="geometry" />
        </mxCell>
        <mxCell id="duxP4CULR9FMRPUdZlci-7" value="" style="rounded=1;whiteSpace=wrap;html=1;arcSize=4;fillColor=#f9f7ed;strokeColor=#36393d;" parent="1" vertex="1">
          <mxGeometry x="-90" y="390" width="200" height="110" as="geometry" />
        </mxCell>
        <mxCell id="duxP4CULR9FMRPUdZlci-9" value="" style="image;aspect=fixed;html=1;points=[];align=center;fontSize=12;image=img/lib/azure2/networking/Virtual_Networks.svg;" parent="1" vertex="1">
          <mxGeometry x="-77" y="400" width="16.75" height="10" as="geometry" />
        </mxCell>
        <mxCell id="duxP4CULR9FMRPUdZlci-10" value="vNet-A region-eu-1" style="text;html=1;align=center;verticalAlign=middle;whiteSpace=wrap;rounded=0;fontFamily=Lucida Console;" parent="1" vertex="1">
          <mxGeometry x="-62" y="395" width="140" height="30" as="geometry" />
        </mxCell>
        <mxCell id="duxP4CULR9FMRPUdZlci-21" style="rounded=0;orthogonalLoop=1;jettySize=auto;html=1;exitX=1;exitY=0;exitDx=0;exitDy=0;entryX=0;entryY=1;entryDx=0;entryDy=0;endArrow=none;startFill=0;strokeWidth=3;fillColor=#dae8fc;strokeColor=#6c8ebf;" parent="1" source="duxP4CULR9FMRPUdZlci-12" target="duxP4CULR9FMRPUdZlci-3" edge="1">
          <mxGeometry relative="1" as="geometry" />
        </mxCell>
        <mxCell id="duxP4CULR9FMRPUdZlci-12" value="" style="rounded=1;whiteSpace=wrap;html=1;arcSize=4;fillColor=#f9f7ed;strokeColor=#36393d;" parent="1" vertex="1">
          <mxGeometry x="-90" y="585" width="200" height="110" as="geometry" />
        </mxCell>
        <mxCell id="duxP4CULR9FMRPUdZlci-13" value="" style="image;aspect=fixed;html=1;points=[];align=center;fontSize=12;image=img/lib/azure2/networking/Virtual_Networks.svg;" parent="1" vertex="1">
          <mxGeometry x="-77" y="595" width="16.75" height="10" as="geometry" />
        </mxCell>
        <mxCell id="duxP4CULR9FMRPUdZlci-14" value="vNet-B region-eu-1" style="text;html=1;align=center;verticalAlign=middle;whiteSpace=wrap;rounded=0;fontFamily=Lucida Console;" parent="1" vertex="1">
          <mxGeometry x="-55" y="591" width="140" height="30" as="geometry" />
        </mxCell>
        <mxCell id="duxP4CULR9FMRPUdZlci-15" value="" style="rounded=1;whiteSpace=wrap;html=1;arcSize=4;fillColor=#f9f7ed;strokeColor=#36393d;" parent="1" vertex="1">
          <mxGeometry x="510" y="390" width="200" height="110" as="geometry" />
        </mxCell>
        <mxCell id="duxP4CULR9FMRPUdZlci-16" value="" style="image;aspect=fixed;html=1;points=[];align=center;fontSize=12;image=img/lib/azure2/networking/Virtual_Networks.svg;" parent="1" vertex="1">
          <mxGeometry x="523" y="400" width="16.75" height="10" as="geometry" />
        </mxCell>
        <mxCell id="duxP4CULR9FMRPUdZlci-30" style="rounded=0;orthogonalLoop=1;jettySize=auto;html=1;exitX=0.25;exitY=1;exitDx=0;exitDy=0;entryX=0.093;entryY=0;entryDx=0;entryDy=0;entryPerimeter=0;endArrow=none;startFill=0;strokeWidth=3;fillColor=#fff2cc;strokeColor=#CC0066;" parent="1" edge="1">
          <mxGeometry relative="1" as="geometry">
            <mxPoint x="-42" y="500" as="sourcePoint" />
            <mxPoint x="-43.98000000000002" y="591" as="targetPoint" />
          </mxGeometry>
        </mxCell>
        <mxCell id="duxP4CULR9FMRPUdZlci-17" value="vNet-C region-eu-2" style="text;html=1;align=center;verticalAlign=middle;whiteSpace=wrap;rounded=0;fontFamily=Lucida Console;" parent="1" vertex="1">
          <mxGeometry x="545" y="390" width="140" height="30" as="geometry" />
        </mxCell>
        <mxCell id="duxP4CULR9FMRPUdZlci-18" value="" style="image;aspect=fixed;html=1;points=[];align=center;fontSize=12;image=img/lib/azure2/networking/Virtual_WAN_Hub.svg;" parent="1" vertex="1">
          <mxGeometry x="151" y="505" width="24.38" height="24" as="geometry" />
        </mxCell>
        <mxCell id="duxP4CULR9FMRPUdZlci-19" value="" style="image;aspect=fixed;html=1;points=[];align=center;fontSize=12;image=img/lib/azure2/networking/Virtual_WAN_Hub.svg;" parent="1" vertex="1">
          <mxGeometry x="349" y="507" width="24.38" height="24" as="geometry" />
        </mxCell>
        <mxCell id="duxP4CULR9FMRPUdZlci-23" style="rounded=0;orthogonalLoop=1;jettySize=auto;html=1;exitX=0;exitY=1;exitDx=0;exitDy=0;entryX=0.977;entryY=0.117;entryDx=0;entryDy=0;entryPerimeter=0;strokeWidth=3;fillColor=#dae8fc;strokeColor=#6c8ebf;endArrow=none;startFill=0;" parent="1" source="duxP4CULR9FMRPUdZlci-15" target="duxP4CULR9FMRPUdZlci-5" edge="1">
          <mxGeometry relative="1" as="geometry" />
        </mxCell>
        <mxCell id="duxP4CULR9FMRPUdZlci-28" style="rounded=0;orthogonalLoop=1;jettySize=auto;html=1;exitX=0;exitY=0;exitDx=0;exitDy=0;entryX=1;entryY=1;entryDx=0;entryDy=0;endArrow=none;startFill=0;strokeWidth=3;fillColor=#dae8fc;strokeColor=#6c8ebf;" parent="1" source="duxP4CULR9FMRPUdZlci-24" target="duxP4CULR9FMRPUdZlci-5" edge="1">
          <mxGeometry relative="1" as="geometry" />
        </mxCell>
        <mxCell id="duxP4CULR9FMRPUdZlci-24" value="" style="rounded=1;whiteSpace=wrap;html=1;arcSize=4;fillColor=#f9f7ed;strokeColor=#36393d;" parent="1" vertex="1">
          <mxGeometry x="508.38" y="585" width="200" height="110" as="geometry" />
        </mxCell>
        <mxCell id="duxP4CULR9FMRPUdZlci-25" value="" style="image;aspect=fixed;html=1;points=[];align=center;fontSize=12;image=img/lib/azure2/networking/Virtual_Networks.svg;" parent="1" vertex="1">
          <mxGeometry x="521.38" y="595" width="16.75" height="10" as="geometry" />
        </mxCell>
        <mxCell id="duxP4CULR9FMRPUdZlci-26" value="vNet-D region-eu-2" style="text;html=1;align=center;verticalAlign=middle;whiteSpace=wrap;rounded=0;fontFamily=Lucida Console;" parent="1" vertex="1">
          <mxGeometry x="543.38" y="585" width="140" height="30" as="geometry" />
        </mxCell>
        <mxCell id="duxP4CULR9FMRPUdZlci-31" value="" style="image;sketch=0;aspect=fixed;html=1;points=[];align=center;fontSize=12;image=img/lib/mscae/Virtual_WANs.svg;" parent="1" vertex="1">
          <mxGeometry x="-123" y="347" width="23" height="23" as="geometry" />
        </mxCell>
        <mxCell id="duxP4CULR9FMRPUdZlci-32" value="" style="verticalLabelPosition=bottom;html=1;verticalAlign=top;align=center;strokeColor=none;fillColor=#00BEF2;shape=mxgraph.azure.express_route;pointerEvents=1;" parent="1" vertex="1">
          <mxGeometry x="131.67000000000002" y="682" width="33.33" height="20" as="geometry" />
        </mxCell>
        <mxCell id="duxP4CULR9FMRPUdZlci-34" value="&lt;font face=&quot;Lucida Console&quot;&gt;virtual-wan&lt;/font&gt;" style="text;html=1;align=center;verticalAlign=middle;whiteSpace=wrap;rounded=0;" parent="1" vertex="1">
          <mxGeometry x="-100" y="343.5" width="100" height="30" as="geometry" />
        </mxCell>
        <mxCell id="duxP4CULR9FMRPUdZlci-35" value="" style="endArrow=none;dashed=1;html=1;rounded=0;" parent="1" edge="1">
          <mxGeometry width="50" height="50" relative="1" as="geometry">
            <mxPoint x="300" y="760" as="sourcePoint" />
            <mxPoint x="300" y="340" as="targetPoint" />
          </mxGeometry>
        </mxCell>
        <mxCell id="duxP4CULR9FMRPUdZlci-36" value="Region eu-1" style="text;html=1;align=center;verticalAlign=middle;whiteSpace=wrap;rounded=0;fontFamily=Lucida Console;" parent="1" vertex="1">
          <mxGeometry x="187.38" y="390" width="90" height="30" as="geometry" />
        </mxCell>
        <mxCell id="duxP4CULR9FMRPUdZlci-37" value="Region eu-2" style="text;html=1;align=center;verticalAlign=middle;whiteSpace=wrap;rounded=0;fontFamily=Lucida Console;" parent="1" vertex="1">
          <mxGeometry x="317.38" y="390" width="90" height="30" as="geometry" />
        </mxCell>
        <mxCell id="duxP4CULR9FMRPUdZlci-38" value="&lt;div&gt;on-premises&lt;/div&gt;&lt;div&gt;Datacenter&lt;/div&gt;" style="text;html=1;align=center;verticalAlign=middle;whiteSpace=wrap;rounded=0;fontFamily=Lucida Console;" parent="1" vertex="1">
          <mxGeometry x="25" y="950" width="60" height="30" as="geometry" />
        </mxCell>
        <mxCell id="duxP4CULR9FMRPUdZlci-40" value="express route standard" style="text;html=1;align=center;verticalAlign=middle;whiteSpace=wrap;rounded=0;fontFamily=Lucida Console;" parent="1" vertex="1">
          <mxGeometry x="167.38" y="640" width="60" height="30" as="geometry" />
        </mxCell>
        <mxCell id="duxP4CULR9FMRPUdZlci-41" style="rounded=0;orthogonalLoop=1;jettySize=auto;html=1;exitX=0.25;exitY=1;exitDx=0;exitDy=0;endArrow=none;startFill=0;strokeWidth=3;fillColor=#fff2cc;strokeColor=#CC0066;" parent="1" edge="1">
          <mxGeometry relative="1" as="geometry">
            <mxPoint x="331.98" y="770" as="sourcePoint" />
            <mxPoint x="400" y="770" as="targetPoint" />
          </mxGeometry>
        </mxCell>
        <mxCell id="duxP4CULR9FMRPUdZlci-42" style="rounded=0;orthogonalLoop=1;jettySize=auto;html=1;endArrow=none;startFill=0;strokeWidth=3;fillColor=#dae8fc;strokeColor=#6c8ebf;" parent="1" edge="1">
          <mxGeometry relative="1" as="geometry">
            <mxPoint x="331" y="793" as="sourcePoint" />
            <mxPoint x="399" y="793" as="targetPoint" />
          </mxGeometry>
        </mxCell>
        <mxCell id="duxP4CULR9FMRPUdZlci-43" value="vnet-peering" style="text;html=1;align=center;verticalAlign=middle;whiteSpace=wrap;rounded=0;fontFamily=Lucida Console;" parent="1" vertex="1">
          <mxGeometry x="396" y="752" width="130" height="30" as="geometry" />
        </mxCell>
        <mxCell id="duxP4CULR9FMRPUdZlci-44" value="vnet-link to vHub" style="text;html=1;align=center;verticalAlign=middle;whiteSpace=wrap;rounded=0;fontFamily=Lucida Console;" parent="1" vertex="1">
          <mxGeometry x="395.38" y="776" width="162.62" height="30" as="geometry" />
        </mxCell>
        <mxCell id="duxP4CULR9FMRPUdZlci-45" value="" style="image;aspect=fixed;html=1;points=[];align=center;fontSize=12;image=img/lib/azure2/compute/VM_Scale_Sets.svg;" parent="1" vertex="1">
          <mxGeometry x="-10" y="640" width="25" height="25" as="geometry" />
        </mxCell>
        <mxCell id="duxP4CULR9FMRPUdZlci-46" value="" style="image;aspect=fixed;html=1;points=[];align=center;fontSize=12;image=img/lib/azure2/compute/Virtual_Machine.svg;" parent="1" vertex="1">
          <mxGeometry x="-71.56" y="645" width="16.17" height="15" as="geometry" />
        </mxCell>
        <mxCell id="duxP4CULR9FMRPUdZlci-47" value="" style="image;aspect=fixed;html=1;points=[];align=center;fontSize=12;image=img/lib/azure2/compute/Virtual_Machine.svg;" parent="1" vertex="1">
          <mxGeometry x="-50" y="890" width="21.56" height="20" as="geometry" />
        </mxCell>
        <mxCell id="duxP4CULR9FMRPUdZlci-48" value="" style="image;sketch=0;aspect=fixed;html=1;points=[];align=center;fontSize=12;image=img/lib/mscae/Azure_Firewall.svg;" parent="1" vertex="1">
          <mxGeometry x="-50" y="440" width="20" height="20" as="geometry" />
        </mxCell>
        <mxCell id="duxP4CULR9FMRPUdZlci-49" value="&lt;div&gt;Azure&lt;/div&gt;&lt;div&gt;Firewall&lt;/div&gt;" style="text;html=1;align=center;verticalAlign=middle;whiteSpace=wrap;rounded=0;fontFamily=Lucida Console;fontSize=10;" parent="1" vertex="1">
          <mxGeometry x="-30" y="435" width="60" height="30" as="geometry" />
        </mxCell>
        <mxCell id="duxP4CULR9FMRPUdZlci-50" value="" style="image;aspect=fixed;html=1;points=[];align=center;fontSize=12;image=img/lib/azure2/storage/Storage_Accounts.svg;" parent="1" vertex="1">
          <mxGeometry x="125" y="422" width="25" height="20" as="geometry" />
        </mxCell>
        <mxCell id="duxP4CULR9FMRPUdZlci-51" value="&lt;div&gt;private endpoint&lt;/div&gt;" style="text;html=1;align=center;verticalAlign=middle;whiteSpace=wrap;rounded=0;fontFamily=Lucida Console;fontSize=10;" parent="1" vertex="1">
          <mxGeometry x="44.489999999999995" y="465" width="60" height="30" as="geometry" />
        </mxCell>
        <mxCell id="duxP4CULR9FMRPUdZlci-52" value="" style="image;aspect=fixed;html=1;points=[];align=center;fontSize=12;image=img/lib/azure2/other/Private_Endpoints.svg;" parent="1" vertex="1">
          <mxGeometry x="63.97" y="442" width="21.03" height="20" as="geometry" />
        </mxCell>
        <mxCell id="duxP4CULR9FMRPUdZlci-56" style="rounded=0;orthogonalLoop=1;jettySize=auto;html=1;entryX=0.168;entryY=0.391;entryDx=0;entryDy=0;entryPerimeter=0;endArrow=none;startFill=0;" parent="1" source="duxP4CULR9FMRPUdZlci-52" target="duxP4CULR9FMRPUdZlci-53" edge="1">
          <mxGeometry relative="1" as="geometry" />
        </mxCell>
        <mxCell id="duxP4CULR9FMRPUdZlci-53" value="" style="verticalLabelPosition=bottom;html=1;verticalAlign=top;align=center;strokeColor=none;fillColor=#00BEF2;shape=mxgraph.azure.sql_database_sql_azure;" parent="1" vertex="1">
          <mxGeometry x="125.75" y="453" width="28.5" height="30" as="geometry" />
        </mxCell>
        <mxCell id="duxP4CULR9FMRPUdZlci-54" value="&lt;div&gt;paas with&amp;nbsp;&lt;/div&gt;&lt;div&gt;private endpoint&lt;/div&gt;" style="text;html=1;align=center;verticalAlign=middle;whiteSpace=wrap;rounded=0;fontFamily=Lucida Console;fontSize=10;" parent="1" vertex="1">
          <mxGeometry x="154.25" y="430" width="100" height="30" as="geometry" />
        </mxCell>
        <mxCell id="duxP4CULR9FMRPUdZlci-55" style="rounded=0;orthogonalLoop=1;jettySize=auto;html=1;entryX=0.035;entryY=0.41;entryDx=0;entryDy=0;entryPerimeter=0;endArrow=none;startFill=0;" parent="1" source="duxP4CULR9FMRPUdZlci-52" target="duxP4CULR9FMRPUdZlci-50" edge="1">
          <mxGeometry relative="1" as="geometry" />
        </mxCell>
        <mxCell id="duxP4CULR9FMRPUdZlci-57" value="vms, vm scale sets, aks, .." style="text;html=1;align=center;verticalAlign=middle;whiteSpace=wrap;rounded=0;fontFamily=Lucida Console;fontSize=10;" parent="1" vertex="1">
          <mxGeometry x="-100" y="665" width="210" height="30" as="geometry" />
        </mxCell>
        <mxCell id="duxP4CULR9FMRPUdZlci-58" value="" style="image;aspect=fixed;html=1;points=[];align=center;fontSize=12;image=img/lib/azure2/compute/Kubernetes_Services.svg;" parent="1" vertex="1">
          <mxGeometry x="66.52" y="643.69" width="18.48" height="16.31" as="geometry" />
        </mxCell>
        <mxCell id="duxP4CULR9FMRPUdZlci-59" value="" style="strokeWidth=2;html=1;shape=mxgraph.flowchart.database;whiteSpace=wrap;" parent="1" vertex="1">
          <mxGeometry x="53.49" y="884" width="30" height="30" as="geometry" />
        </mxCell>
        <mxCell id="gPbf7C8P6sWkg_50eWg2-5" style="edgeStyle=orthogonalEdgeStyle;rounded=0;orthogonalLoop=1;jettySize=auto;html=1;curved=1;dashed=1;strokeWidth=2;" parent="1" source="duxP4CULR9FMRPUdZlci-47" edge="1">
          <mxGeometry relative="1" as="geometry">
            <Array as="points">
              <mxPoint x="-39" y="810" />
              <mxPoint x="130" y="810" />
              <mxPoint x="130" y="540" />
              <mxPoint x="556" y="540" />
            </Array>
            <mxPoint x="556" y="467" as="targetPoint" />
          </mxGeometry>
        </mxCell>
        <mxCell id="Dm0uZpSRK0ZEPxicm3Ep-5" style="rounded=0;orthogonalLoop=1;jettySize=auto;html=1;endArrow=none;startFill=0;" parent="1" target="Dm0uZpSRK0ZEPxicm3Ep-3" edge="1">
          <mxGeometry relative="1" as="geometry">
            <mxPoint x="570" y="457.1821820582652" as="sourcePoint" />
          </mxGeometry>
        </mxCell>
        <mxCell id="Dm0uZpSRK0ZEPxicm3Ep-2" value="" style="image;aspect=fixed;html=1;points=[];align=center;fontSize=12;image=img/lib/azure2/compute/Virtual_Machine.svg;" parent="1" vertex="1">
          <mxGeometry x="609.22" y="423" width="16.17" height="15" as="geometry" />
        </mxCell>
        <mxCell id="Dm0uZpSRK0ZEPxicm3Ep-3" value="" style="image;aspect=fixed;html=1;points=[];align=center;fontSize=12;image=img/lib/azure2/compute/Virtual_Machine.svg;" parent="1" vertex="1">
          <mxGeometry x="610" y="460" width="16.17" height="15" as="geometry" />
        </mxCell>
        <mxCell id="Dm0uZpSRK0ZEPxicm3Ep-4" style="rounded=0;orthogonalLoop=1;jettySize=auto;html=1;entryX=0.174;entryY=0.46;entryDx=0;entryDy=0;entryPerimeter=0;endArrow=none;startFill=0;" parent="1" target="Dm0uZpSRK0ZEPxicm3Ep-2" edge="1">
          <mxGeometry relative="1" as="geometry">
            <mxPoint x="570" y="448.8612724490122" as="sourcePoint" />
          </mxGeometry>
        </mxCell>
        <mxCell id="Dm0uZpSRK0ZEPxicm3Ep-6" value="Load Balancer" style="text;html=1;align=center;verticalAlign=middle;whiteSpace=wrap;rounded=0;fontFamily=Lucida Console;labelBackgroundColor=default;" parent="1" vertex="1">
          <mxGeometry x="476.13" y="440" width="60" height="30" as="geometry" />
        </mxCell>
        <mxCell id="Dm0uZpSRK0ZEPxicm3Ep-9" value="&lt;div&gt;on-premises&lt;/div&gt;&lt;div&gt;VM&lt;/div&gt;" style="text;html=1;align=center;verticalAlign=middle;whiteSpace=wrap;rounded=0;fontFamily=Lucida Console;" parent="1" vertex="1">
          <mxGeometry x="-69.22000000000003" y="930" width="60" height="30" as="geometry" />
        </mxCell>
        <mxCell id="Dm0uZpSRK0ZEPxicm3Ep-11" value="VM-1" style="text;html=1;align=center;verticalAlign=middle;whiteSpace=wrap;rounded=0;fontFamily=Lucida Console;" parent="1" vertex="1">
          <mxGeometry x="618" y="413" width="60" height="30" as="geometry" />
        </mxCell>
        <mxCell id="Dm0uZpSRK0ZEPxicm3Ep-12" value="VM-2" style="text;html=1;align=center;verticalAlign=middle;whiteSpace=wrap;rounded=0;fontFamily=Lucida Console;" parent="1" vertex="1">
          <mxGeometry x="618" y="451" width="60" height="30" as="geometry" />
        </mxCell>
        <mxCell id="Dm0uZpSRK0ZEPxicm3Ep-13" style="rounded=0;orthogonalLoop=1;jettySize=auto;html=1;shape=link;strokeColor=#004C99;" parent="1" edge="1">
          <mxGeometry relative="1" as="geometry">
            <mxPoint x="330" y="816" as="sourcePoint" />
            <mxPoint x="400" y="816" as="targetPoint" />
          </mxGeometry>
        </mxCell>
        <mxCell id="Dm0uZpSRK0ZEPxicm3Ep-14" value="express route private peering" style="text;html=1;align=center;verticalAlign=middle;whiteSpace=wrap;rounded=0;fontFamily=Lucida Console;" parent="1" vertex="1">
          <mxGeometry x="401" y="801" width="229" height="30" as="geometry" />
        </mxCell>
        <mxCell id="Dm0uZpSRK0ZEPxicm3Ep-16" value="&lt;div&gt;&lt;font face=&quot;Lucida Console&quot;&gt;Data&amp;nbsp; from the On-Premises DC entering the Azure premises through express route = free&lt;/font&gt;&amp;nbsp;&lt;/div&gt;" style="text;html=1;align=right;verticalAlign=middle;rounded=0;whiteSpace=wrap;" parent="1" vertex="1">
          <mxGeometry x="-520" y="710" width="350" height="72" as="geometry" />
        </mxCell>
        <mxCell id="Dm0uZpSRK0ZEPxicm3Ep-17" value="" style="shape=curlyBracket;whiteSpace=wrap;html=1;rounded=1;labelPosition=left;verticalLabelPosition=middle;align=right;verticalAlign=middle;" parent="1" vertex="1">
          <mxGeometry x="-157" y="670" width="20" height="150" as="geometry" />
        </mxCell>
        <mxCell id="Dm0uZpSRK0ZEPxicm3Ep-18" value="&lt;font face=&quot;Lucida Console&quot;&gt;&lt;br&gt;Service Name: &lt;b&gt;Virtual WAN&lt;/b&gt;&lt;/font&gt;&lt;div&gt;&lt;font face=&quot;Lucida Console&quot;&gt;Meter: &lt;/font&gt;&lt;font style=&quot;white-space: nowrap; font-size: 11px; color: rgb(255, 0, 0);&quot; face=&quot;Lucida Console&quot;&gt;&lt;b&gt;Standard Hub Data Processed&lt;/b&gt;&lt;/font&gt;&lt;/div&gt;" style="text;html=1;align=right;verticalAlign=middle;rounded=0;whiteSpace=wrap;" parent="1" vertex="1">
          <mxGeometry x="-521" y="597" width="350" height="70" as="geometry" />
        </mxCell>
        <mxCell id="Dm0uZpSRK0ZEPxicm3Ep-19" value="" style="shape=curlyBracket;whiteSpace=wrap;html=1;rounded=1;labelPosition=left;verticalLabelPosition=middle;align=right;verticalAlign=middle;" parent="1" vertex="1">
          <mxGeometry x="-160" y="612" width="20" height="52" as="geometry" />
        </mxCell>
        <mxCell id="Dm0uZpSRK0ZEPxicm3Ep-21" value="&lt;font face=&quot;Lucida Console&quot;&gt;&lt;br&gt;Service Name: &lt;b&gt;Bandwidth&lt;/b&gt;&lt;/font&gt;&lt;div&gt;&lt;font face=&quot;Lucida Console&quot;&gt;Meter Subcategory:&lt;span class=&quot;pie-legend-title ellipsis&quot;&gt;&lt;b&gt;Bandwidth Inter-Region&lt;/b&gt;&lt;/span&gt;&lt;/font&gt;&lt;/div&gt;&lt;div&gt;&lt;font face=&quot;Lucida Console&quot;&gt;Meter:&lt;span style=&quot;color: rgb(255, 0, 0);&quot; class=&quot;pie-legend-title ellipsis&quot;&gt;&lt;b&gt;Intra Continent Data Transfer Out&lt;/b&gt;&lt;/span&gt;&lt;/font&gt;&lt;/div&gt;" style="text;html=1;align=right;verticalAlign=middle;rounded=0;whiteSpace=wrap;" parent="1" vertex="1">
          <mxGeometry x="-515" y="535" width="350" height="70" as="geometry" />
        </mxCell>
        <mxCell id="krYM3cxRlhCQfFP8GPMY-1" value="" style="shape=curlyBracket;whiteSpace=wrap;html=1;rounded=1;labelPosition=left;verticalLabelPosition=middle;align=right;verticalAlign=middle;" vertex="1" parent="1">
          <mxGeometry x="-161" y="560" width="20" height="40" as="geometry" />
        </mxCell>
        <mxCell id="krYM3cxRlhCQfFP8GPMY-6" value="" style="ellipse;whiteSpace=wrap;html=1;aspect=fixed;fillColor=none;fontFamily=Lucida Console;" vertex="1" parent="1">
          <mxGeometry x="327.38" y="557" width="20" height="20" as="geometry" />
        </mxCell>
        <mxCell id="krYM3cxRlhCQfFP8GPMY-8" value="&lt;font&gt;4.&lt;/font&gt;" style="text;html=1;align=center;verticalAlign=middle;whiteSpace=wrap;rounded=0;fontFamily=Lucida Console;fontStyle=1" vertex="1" parent="1">
          <mxGeometry x="311.38" y="552" width="60" height="30" as="geometry" />
        </mxCell>
        <mxCell id="krYM3cxRlhCQfFP8GPMY-9" value="" style="ellipse;whiteSpace=wrap;html=1;aspect=fixed;fillColor=none;" vertex="1" parent="1">
          <mxGeometry x="116" y="755" width="20" height="20" as="geometry" />
        </mxCell>
        <mxCell id="krYM3cxRlhCQfFP8GPMY-10" value="&lt;font face=&quot;Lucida Console&quot;&gt;1.&lt;/font&gt;" style="text;html=1;align=center;verticalAlign=middle;whiteSpace=wrap;rounded=0;fontStyle=1" vertex="1" parent="1">
          <mxGeometry x="100" y="750" width="60" height="30" as="geometry" />
        </mxCell>
        <mxCell id="krYM3cxRlhCQfFP8GPMY-12" value="" style="ellipse;whiteSpace=wrap;html=1;aspect=fixed;fillColor=none;" vertex="1" parent="1">
          <mxGeometry x="126" y="545" width="20" height="20" as="geometry" />
        </mxCell>
        <mxCell id="krYM3cxRlhCQfFP8GPMY-13" value="&lt;font face=&quot;Lucida Console&quot;&gt;2.&lt;/font&gt;" style="text;html=1;align=center;verticalAlign=middle;whiteSpace=wrap;rounded=0;fontStyle=1" vertex="1" parent="1">
          <mxGeometry x="110" y="540" width="60" height="30" as="geometry" />
        </mxCell>
        <mxCell id="krYM3cxRlhCQfFP8GPMY-15" value="" style="ellipse;whiteSpace=wrap;html=1;aspect=fixed;fillColor=none;" vertex="1" parent="1">
          <mxGeometry x="302" y="506" width="20" height="20" as="geometry" />
        </mxCell>
        <mxCell id="krYM3cxRlhCQfFP8GPMY-16" value="&lt;font face=&quot;Lucida Console&quot;&gt;3.&lt;/font&gt;" style="text;html=1;align=center;verticalAlign=middle;whiteSpace=wrap;rounded=0;fontStyle=1" vertex="1" parent="1">
          <mxGeometry x="286" y="501" width="60" height="30" as="geometry" />
        </mxCell>
        <mxCell id="krYM3cxRlhCQfFP8GPMY-17" value="" style="image;sketch=0;aspect=fixed;html=1;points=[];align=center;fontSize=12;image=img/lib/mscae/Load_Balancer_feature.svg;" vertex="1" parent="1">
          <mxGeometry x="543" y="440.5" width="25" height="25" as="geometry" />
        </mxCell>
        <mxCell id="krYM3cxRlhCQfFP8GPMY-19" value="&lt;font face=&quot;Lucida Console&quot;&gt;&lt;br&gt;Service Name:&lt;b&gt;Load Balancer&lt;/b&gt;&lt;/font&gt;&lt;div&gt;&lt;br&gt;&lt;/div&gt;&lt;div&gt;&lt;font face=&quot;Lucida Console&quot;&gt;Meter: &lt;/font&gt;&lt;font style=&quot;white-space: nowrap; font-size: 11px; color: rgb(255, 0, 0);&quot; face=&quot;Lucida Console&quot;&gt;&lt;b&gt;Standard Data Processed&lt;/b&gt;&lt;/font&gt;&lt;/div&gt;" style="text;html=1;align=right;verticalAlign=middle;rounded=0;whiteSpace=wrap;" vertex="1" parent="1">
          <mxGeometry x="-521" y="378" width="350" height="70" as="geometry" />
        </mxCell>
        <mxCell id="krYM3cxRlhCQfFP8GPMY-20" value="" style="shape=curlyBracket;whiteSpace=wrap;html=1;rounded=1;labelPosition=left;verticalLabelPosition=middle;align=right;verticalAlign=middle;" vertex="1" parent="1">
          <mxGeometry x="-160" y="394" width="20" height="52" as="geometry" />
        </mxCell>
        <mxCell id="krYM3cxRlhCQfFP8GPMY-22" value="&lt;font face=&quot;Lucida Console&quot;&gt;&lt;br&gt;Service Name: &lt;b&gt;Virtual Network&lt;br&gt;&lt;/b&gt;&lt;/font&gt;&lt;div&gt;&lt;font face=&quot;Lucida Console&quot;&gt;Meter Subcategory: &lt;b&gt;Virtual Network Peering&lt;/b&gt;&lt;/font&gt;&lt;/div&gt;&lt;div&gt;&lt;font face=&quot;Lucida Console&quot;&gt;Meter: &lt;b&gt;&lt;span style=&quot;color: rgb(255, 0, 0);&quot;&gt;Intra-Region Ingress&lt;/span&gt;&lt;/b&gt;&lt;/font&gt;&lt;/div&gt;" style="text;html=1;align=right;verticalAlign=middle;rounded=0;whiteSpace=wrap;" vertex="1" parent="1">
          <mxGeometry x="-515" y="434" width="350" height="70" as="geometry" />
        </mxCell>
        <mxCell id="krYM3cxRlhCQfFP8GPMY-23" value="" style="shape=curlyBracket;whiteSpace=wrap;html=1;rounded=1;labelPosition=left;verticalLabelPosition=middle;align=right;verticalAlign=middle;" vertex="1" parent="1">
          <mxGeometry x="-160" y="452" width="20" height="52" as="geometry" />
        </mxCell>
        <mxCell id="krYM3cxRlhCQfFP8GPMY-25" value="" style="ellipse;whiteSpace=wrap;html=1;aspect=fixed;fillColor=none;" vertex="1" parent="1">
          <mxGeometry x="476" y="481" width="20" height="20" as="geometry" />
        </mxCell>
        <mxCell id="krYM3cxRlhCQfFP8GPMY-26" value="&lt;font face=&quot;Lucida Console&quot;&gt;5.&lt;/font&gt;" style="text;html=1;align=center;verticalAlign=middle;whiteSpace=wrap;rounded=0;fontStyle=1" vertex="1" parent="1">
          <mxGeometry x="457" y="476" width="60" height="30" as="geometry" />
        </mxCell>
        <mxCell id="krYM3cxRlhCQfFP8GPMY-28" value="" style="ellipse;whiteSpace=wrap;html=1;aspect=fixed;fillColor=none;" vertex="1" parent="1">
          <mxGeometry x="-124" y="735" width="20" height="20" as="geometry" />
        </mxCell>
        <mxCell id="krYM3cxRlhCQfFP8GPMY-29" value="&lt;font face=&quot;Lucida Console&quot;&gt;1.&lt;/font&gt;" style="text;html=1;align=center;verticalAlign=middle;whiteSpace=wrap;rounded=0;fontStyle=1" vertex="1" parent="1">
          <mxGeometry x="-140" y="730" width="60" height="30" as="geometry" />
        </mxCell>
        <mxCell id="krYM3cxRlhCQfFP8GPMY-30" value="" style="ellipse;whiteSpace=wrap;html=1;aspect=fixed;fillColor=none;" vertex="1" parent="1">
          <mxGeometry x="-129" y="630" width="20" height="20" as="geometry" />
        </mxCell>
        <mxCell id="krYM3cxRlhCQfFP8GPMY-31" value="&lt;font face=&quot;Lucida Console&quot;&gt;2.&lt;/font&gt;" style="text;html=1;align=center;verticalAlign=middle;whiteSpace=wrap;rounded=0;fontStyle=1" vertex="1" parent="1">
          <mxGeometry x="-145" y="625" width="60" height="30" as="geometry" />
        </mxCell>
        <mxCell id="krYM3cxRlhCQfFP8GPMY-32" value="" style="ellipse;whiteSpace=wrap;html=1;aspect=fixed;fillColor=none;" vertex="1" parent="1">
          <mxGeometry x="-129" y="569" width="20" height="20" as="geometry" />
        </mxCell>
        <mxCell id="krYM3cxRlhCQfFP8GPMY-33" value="&lt;font face=&quot;Lucida Console&quot;&gt;3.&lt;/font&gt;" style="text;html=1;align=center;verticalAlign=middle;whiteSpace=wrap;rounded=0;fontStyle=1" vertex="1" parent="1">
          <mxGeometry x="-145" y="564" width="60" height="30" as="geometry" />
        </mxCell>
        <mxCell id="krYM3cxRlhCQfFP8GPMY-34" value="" style="ellipse;whiteSpace=wrap;html=1;aspect=fixed;fillColor=none;" vertex="1" parent="1">
          <mxGeometry x="-129" y="524" width="20" height="20" as="geometry" />
        </mxCell>
        <mxCell id="krYM3cxRlhCQfFP8GPMY-35" value="&lt;font face=&quot;Lucida Console&quot;&gt;4.&lt;/font&gt;" style="text;html=1;align=center;verticalAlign=middle;whiteSpace=wrap;rounded=0;fontStyle=1" vertex="1" parent="1">
          <mxGeometry x="-145" y="519" width="60" height="30" as="geometry" />
        </mxCell>
        <mxCell id="krYM3cxRlhCQfFP8GPMY-36" value="" style="ellipse;whiteSpace=wrap;html=1;aspect=fixed;fillColor=none;" vertex="1" parent="1">
          <mxGeometry x="-128" y="465" width="20" height="20" as="geometry" />
        </mxCell>
        <mxCell id="krYM3cxRlhCQfFP8GPMY-37" value="&lt;font face=&quot;Lucida Console&quot;&gt;5.&lt;/font&gt;" style="text;html=1;align=center;verticalAlign=middle;whiteSpace=wrap;rounded=0;fontStyle=1" vertex="1" parent="1">
          <mxGeometry x="-144" y="459" width="60" height="30" as="geometry" />
        </mxCell>
        <mxCell id="krYM3cxRlhCQfFP8GPMY-38" value="&lt;font face=&quot;Lucida Console&quot;&gt;&lt;br&gt;Service Name: &lt;b&gt;Virtual WAN&lt;/b&gt;&lt;/font&gt;&lt;div&gt;&lt;font face=&quot;Lucida Console&quot;&gt;Meter: &lt;/font&gt;&lt;font style=&quot;white-space: nowrap; font-size: 11px; color: rgb(255, 0, 0);&quot; face=&quot;Lucida Console&quot;&gt;&lt;b&gt;Standard Hub Data Processed&lt;/b&gt;&lt;/font&gt;&lt;/div&gt;" style="text;html=1;align=right;verticalAlign=middle;rounded=0;whiteSpace=wrap;" vertex="1" parent="1">
          <mxGeometry x="-511" y="487" width="350" height="70" as="geometry" />
        </mxCell>
        <mxCell id="krYM3cxRlhCQfFP8GPMY-39" value="" style="ellipse;whiteSpace=wrap;html=1;aspect=fixed;fillColor=none;" vertex="1" parent="1">
          <mxGeometry x="-129" y="411" width="20" height="20" as="geometry" />
        </mxCell>
        <mxCell id="krYM3cxRlhCQfFP8GPMY-40" value="&lt;font face=&quot;Lucida Console&quot;&gt;6.&lt;/font&gt;" style="text;html=1;align=center;verticalAlign=middle;whiteSpace=wrap;rounded=0;fontStyle=1" vertex="1" parent="1">
          <mxGeometry x="-146" y="405" width="60" height="30" as="geometry" />
        </mxCell>
        <mxCell id="krYM3cxRlhCQfFP8GPMY-41" value="" style="shape=curlyBracket;whiteSpace=wrap;html=1;rounded=1;labelPosition=left;verticalLabelPosition=middle;align=right;verticalAlign=middle;" vertex="1" parent="1">
          <mxGeometry x="-159" y="515" width="20" height="37" as="geometry" />
        </mxCell>
        <mxCell id="krYM3cxRlhCQfFP8GPMY-43" value="" style="ellipse;whiteSpace=wrap;html=1;aspect=fixed;fillColor=none;" vertex="1" parent="1">
          <mxGeometry x="562" y="416" width="20" height="20" as="geometry" />
        </mxCell>
        <mxCell id="krYM3cxRlhCQfFP8GPMY-44" value="&lt;font face=&quot;Lucida Console&quot;&gt;6.&lt;/font&gt;" style="text;html=1;align=center;verticalAlign=middle;whiteSpace=wrap;rounded=0;fontStyle=1" vertex="1" parent="1">
          <mxGeometry x="545" y="410" width="60" height="30" as="geometry" />
        </mxCell>
      </root>
    </mxGraphModel>
  </diagram>
</mxfile>
